<?xml version="1.0" encoding="UTF-8" standalone="no"?>
<svg
   xmlns:dc="http://purl.org/dc/elements/1.1/"
   xmlns:cc="http://creativecommons.org/ns#"
   xmlns:rdf="http://www.w3.org/1999/02/22-rdf-syntax-ns#"
   xmlns:svg="http://www.w3.org/2000/svg"
   xmlns="http://www.w3.org/2000/svg"
   width="48"
   height="48"
   viewBox="0 0 12.7 12.7"
   version="1.1"
   id="svg8">
  <defs
     id="defs2" />
  <metadata
     id="metadata5">
    <rdf:RDF>
      <cc:Work
         rdf:about="">
        <dc:format>image/svg+xml</dc:format>
        <dc:type
           rdf:resource="http://purl.org/dc/dcmitype/StillImage" />
        <dc:title></dc:title>
      </cc:Work>
    </rdf:RDF>
  </metadata>
  <g
     id="layer1">
    <circle
       style="fill:#ff0000;fill-rule:evenodd;stroke-width:0.112006"
       id="path14"
       cx="8.9802561"
       cy="1.2733832e-07"
       transform="rotate(45)"
       r="6.3499999" />
    <rect
       style="fill:#0000ff;fill-rule:evenodd;stroke-width:0.115453"
       id="rect24"
       width="1.3600836"
       height="11.040683"
       x="-0.78404552"
       y="-14.540622"
       transform="rotate(135)" />
    <g
       id="g40"
       transform="matrix(0.23700142,0.23700142,-0.29934186,0.29934186,3.5542015,-19.753472)">
      <g
         id="g35">
        <g
           id="g31">
          <rect
             style="fill:#0000ff;fill-rule:evenodd;stroke-width:0.235827"
             id="rect26"
             width="27.025297"
             height="3.4017856"
             x="-52.255211"
             y="-62.460567"
             transform="matrix(0,-1,-1,0,0,0)" />
        </g>
      </g>
    </g>
    <path
       style="fill:#000000;fill-opacity:1;stroke-width:0.080005"
       d="M 2.3339135,10.25888 1.9567552,9.8759633 3.7158378,8.1182427 c 0.9674955,-0.9667451 1.7590831,-1.793715 1.7590831,-1.8377091 0,-0.043994 -0.7462681,-0.8268911 -1.6583736,-1.7397735 L 2.158176,2.8809757 2.5947585,2.4389013 3.0313414,1.9968268 4.7331758,3.6972811 6.4350113,5.3977354 8.2159593,3.6181066 9.9969055,1.8384795 10.376278,2.2178504 10.755648,2.5972207 8.9760047,4.3781832 7.1963614,6.1591463 8.9768497,7.9409571 10.757341,9.722767 10.315235,10.159382 9.8731281,10.595996 8.1333872,8.8576007 C 7.1765278,7.9014838 6.3582351,7.1192061 6.3149583,7.1192061 c -0.043276,0 -0.8718568,0.7925833 -1.8412872,1.7612957 L 2.7110718,10.641796 Z"
       id="path54" />
    <path
       style="fill:#000000;fill-opacity:1;stroke-width:0.080005"
       d="M 2.3732649,10.220287 2.0448519,9.8918725 3.7598855,8.1375306 c 0.9432691,-0.9648884 1.7150354,-1.799275 1.7150354,-1.8541933 0,-0.054916 -0.7255217,-0.8455753 -1.6122705,-1.7570182 L 2.2503801,2.8691524 2.6407214,2.472853 3.0310623,2.0765524 4.7330361,3.7771461 6.4350113,5.4777395 8.2160202,3.6980501 9.9970303,1.9183609 10.336398,2.2577291 10.675767,2.5970976 8.8960612,4.3781214 7.1163559,6.1591463 8.8969853,7.9410959 10.677616,9.723046 10.275362,10.119253 9.873106,10.515458 8.6140728,9.2719569 C 6.8846327,7.5638568 6.4098757,7.1213664 6.3054056,7.1202038 6.2561424,7.1196536 5.4251492,7.890842 4.4587554,8.8339524 L 2.7016781,10.548699 Z"
       id="path56" />
    <path
       style="fill:#000000;fill-opacity:1;stroke-width:0.080005"
       d="M 2.3735887,10.22061 2.0468445,9.8938665 3.7408813,8.1435542 C 4.6726014,7.1808823 5.4349189,6.342 5.4349189,6.2793711 c 0,-0.062628 -0.7162525,-0.8558225 -1.5916702,-1.7626533 L 2.2515806,2.8679337 2.6413209,2.4722434 3.0310623,2.0765524 4.7330361,3.7771461 6.4350113,5.4777395 8.2160202,3.6980501 9.9970303,1.9183609 10.336398,2.2577291 10.675767,2.5970976 8.8960612,4.3781214 7.1163559,6.1591463 8.8969853,7.9410959 10.677616,9.723046 10.27541,10.119203 9.8732038,10.515361 8.7341281,9.3967965 C 6.4742162,7.1775782 6.3826416,7.0957716 6.2447445,7.1729437 6.174185,7.2124321 5.3478261,7.9878277 4.4083924,8.8960471 L 2.7003327,10.547356 Z"
       id="path58" />
    <path
       style="fill:#000000;fill-opacity:1;stroke-width:0.080005"
       d="M 2.3654771,10.210348 2.0316172,9.8701713 2.2434256,9.6747619 C 2.3599206,9.5672869 3.1353586,8.7663868 3.9666221,7.8949839 5.382536,6.4107002 5.4708717,6.3004227 5.3649927,6.1492583 5.3028325,6.0605129 4.576766,5.286031 3.7515109,4.4281887 L 2.2510464,2.8684756 2.6410544,2.4725147 3.0310623,2.0765524 4.7330361,3.7771461 6.4350113,5.4777395 8.2160202,3.6980501 9.9970303,1.9183609 10.336398,2.2577291 10.675767,2.5970976 8.8960612,4.3781214 7.1163559,6.1591463 8.8969853,7.9410959 10.677616,9.723046 10.281417,10.113286 9.8852214,10.503525 8.1932952,8.8713695 C 7.2627366,7.9736832 6.4496798,7.210003 6.3865045,7.1743008 6.3028357,7.1270204 5.7864832,7.5767287 4.4854855,8.8299583 L 2.6993358,10.550527 Z"
       id="path60" />
    <path
       style="fill:#ffffff;fill-opacity:1;stroke-width:0.080005"
       d="M 2.3797736,10.226795 2.0474749,9.8944974 3.7211951,8.1412872 C 4.6417414,7.1770228 5.3949155,6.3358024 5.3949155,6.2719091 c 0,-0.063893 -0.707284,-0.8558899 -1.5717437,-1.759994 L 2.2514273,2.8680894 2.6412448,2.4723209 3.0310623,2.0765524 4.7330361,3.7771461 6.4350113,5.4777395 8.2160202,3.6980501 9.9970303,1.9183609 10.336398,2.2577291 10.675767,2.5970976 8.8960612,4.3781214 7.1163559,6.1591463 8.8969853,7.9410959 10.677616,9.723046 10.280378,10.11431 9.8831416,10.505574 8.1638885,8.8523925 C 7.2182973,7.9431423 6.3876093,7.1992114 6.3179122,7.1992114 c -0.1155472,0 -0.9290896,0.7491921 -2.8844575,2.6563016 l -0.7213833,0.70358 z"
       id="path62" />
  </g>
</svg>
